<svg width="548" height="122" viewBox="0 0 548 122" fill="none" xmlns="http://www.w3.org/2000/svg">
<path d="M0 10C0 4.47716 4.47715 0 10 0H333C338.523 0 343 4.47715 343 10V112C343 117.523 338.523 122 333 122H10C4.47716 122 0 117.523 0 112V10Z" fill="#0495B5"/>
<path d="M17.9655 96V30.9828H33.3276L56.6034 70.7069V31.1379H71.6552V96H55.9828L32.8621 56.8966V96H17.9655ZM103.676 71.9483H126.176L115.003 43.0862L103.676 71.9483ZM125.71 30.9828L149.451 96H134.555L129.124 80.6379H100.727L95.4514 96H80.5549L104.141 30.9828H125.71ZM156.789 96V30.9828H172.151L195.427 70.7069V31.1379H210.478V96H194.806L171.685 56.8966V96H156.789ZM249.947 87.3103C254.188 87.3103 256.309 85.8621 256.309 82.9655V44.0172C256.309 41.1207 254.188 39.6724 249.947 39.6724H237.999V87.3103H249.947ZM253.051 30.9828C258.016 30.9828 262.257 32.0172 265.775 34.0862C269.395 36.1552 271.206 39 271.206 42.6207V84.3621C271.206 87.9828 269.344 90.8276 265.619 92.8966C262.206 94.9655 258.016 96 253.051 96H223.102V30.9828H253.051ZM308.405 87.3103C312.543 87.3103 314.612 85.8621 314.612 82.9655V44.0172C314.612 41.1207 312.543 39.6724 308.405 39.6724H301.578C297.336 39.6724 295.216 41.1207 295.216 44.0172V82.9655C295.216 85.8621 297.336 87.3103 301.578 87.3103H308.405ZM280.319 42.6207C280.319 39.1034 282.078 36.3103 285.595 34.2414C289.216 32.069 293.56 30.9828 298.629 30.9828H311.354C319.319 30.9828 324.905 33.2069 328.112 37.6552C329.147 39.1034 329.664 40.7586 329.664 42.6207V84.3621C329.664 87.8793 327.854 90.7241 324.233 92.8966C320.716 94.9655 316.422 96 311.354 96H298.629C290.664 96 285.078 93.7759 281.871 89.3276C280.836 87.8793 280.319 86.2241 280.319 84.3621V42.6207ZM403.234 87.3103C407.475 87.3103 409.596 85.8621 409.596 82.9655V60.3103C409.389 57.5172 407.268 56.1207 403.234 56.1207H397.027C392.785 56.1207 390.665 57.569 390.665 60.4655V82.9655C390.665 85.8621 392.785 87.3103 397.027 87.3103H403.234ZM375.768 58.9138C375.768 55.5 377.527 52.7586 381.044 50.6897C384.665 48.5172 389.01 47.431 394.079 47.431H402.613C404.992 47.431 406.648 47.6897 407.579 48.2069L409.596 49.1379V32.6897H424.492V96H409.596V94.6034C407.32 95.5345 404.785 96 401.992 96H394.079C386.113 96 380.527 93.7759 377.32 89.3276C376.285 87.8793 375.768 86.2759 375.768 84.5172V58.9138ZM457.276 55.9655C453.035 55.9655 450.914 57.4138 450.914 60.3103V64.8103H467.983V60.3103C467.983 57.4138 465.914 55.9655 461.776 55.9655H457.276ZM461.776 87.3103C465.914 87.3103 467.983 85.8621 467.983 82.9655V79.8621H482.879V84.3621C482.879 87.9828 481.017 90.8276 477.293 92.8966C473.879 94.9655 469.69 96 464.724 96H454.328C446.362 96 440.776 93.7759 437.569 89.3276C436.535 87.8793 436.017 86.2241 436.017 84.3621V58.9138C436.017 55.3966 437.776 52.6034 441.293 50.5345C444.914 48.3621 449.259 47.2759 454.328 47.2759H464.724C469.69 47.2759 473.879 48.3103 477.293 50.3793C481.017 52.4483 482.879 55.2931 482.879 58.9138V73.5H450.914V82.9655C450.914 85.8621 453.035 87.3103 457.276 87.3103H461.776ZM511.381 96L490.278 47.2759H505.174L518.829 78.6207L532.329 47.2759H547.381L526.278 96H511.381Z" fill="white"/>
<path d="M367.987 63.43L342.619 91.223L342.394 35.8446L367.987 63.43Z" fill="#0495B5"/>
</svg>
